<svg width="131" height="131" viewBox="0 0 131 131" fill="none" xmlns="http://www.w3.org/2000/svg">
<g clip-path="url(#clip0_106_884)">
<path d="M131 0H0V131H131V0Z" fill="#D21033"/>
<path d="M27.1836 62.6366V40.4819H44.535V45.6511H34.4959V49.6822H42.4901V54.8513H34.4959V62.6366H27.1836Z" fill="white"/>
<path d="M55.2264 40.4819H47.9141V62.6366H55.2264V40.4819Z" fill="white"/>
<path d="M58.293 40.4814H65.6671L69.5715 55.2207L73.6307 40.4814H81.0048L73.2583 62.6362H65.9147L58.293 40.4814Z" fill="white"/>
<path d="M83.3398 62.6361V40.4814H101.528V45.6506H90.6528V48.82H99.8547V53.9897H90.6528V57.467H101.962V62.6361H83.3398Z" fill="white"/>
<path d="M39.7271 89.9958H35.0173L34.7385 87.8108C34.4284 88.1598 34.0726 88.4987 33.6696 88.8262C33.2666 89.1549 32.7916 89.442 32.2442 89.6879C31.6966 89.9345 31.0715 90.1343 30.3699 90.2879C29.6671 90.4422 28.8821 90.5187 28.015 90.5187C26.5896 90.5187 25.2259 90.2879 23.9253 89.8264C22.6234 89.3648 21.4717 88.6624 20.4703 87.7185C19.4676 86.7752 18.6731 85.591 18.0842 84.1647C17.4953 82.739 17.2012 81.0623 17.2012 79.1334C17.2012 77.3695 17.4692 75.7541 18.0072 74.2873C18.5438 72.8212 19.3186 71.5643 20.3302 70.518C21.3425 69.4716 22.5718 68.6567 24.0176 68.0712C25.4634 67.487 27.0855 67.1943 28.8821 67.1943C30.2247 67.1943 31.4847 67.3694 32.6624 67.7178C33.8402 68.0668 34.8932 68.5846 35.8227 69.2718C36.7528 69.9591 37.532 70.8158 38.1623 71.8412C38.7919 72.8667 39.2204 74.0566 39.4483 75.4102H32.5077C32.2391 74.4871 31.7845 73.7904 31.1441 73.3181C30.5036 72.8465 29.7085 72.6107 28.7586 72.6107C28.0348 72.6107 27.4109 72.7643 26.8844 73.0716C26.3572 73.3795 25.918 73.8207 25.5672 74.3948C25.2157 74.9695 24.9522 75.6517 24.7771 76.4414C24.6014 77.231 24.5135 78.118 24.5135 79.1031C24.5135 79.8826 24.5855 80.6369 24.7306 81.3646C24.8745 82.0929 25.1228 82.734 25.4742 83.2878C25.825 83.8416 26.2999 84.2829 26.8997 84.6111C27.4981 84.9392 28.2627 85.1036 29.1922 85.1036C29.564 85.1036 29.9517 85.0416 30.354 84.9184C30.757 84.7951 31.1332 84.6212 31.4847 84.3955C31.8361 84.1698 32.1404 83.903 32.3989 83.5957C32.6567 83.2878 32.8381 82.9395 32.9413 82.5494H29.7193V77.7489H39.7271V89.9958Z" fill="white"/>
<path d="M43.5977 67.7793H50.91V81.0417C50.91 81.5955 50.9457 82.119 51.0183 82.6109C51.0908 83.1034 51.2506 83.5339 51.4989 83.9032C51.7466 84.2724 52.098 84.5645 52.5519 84.7801C53.0065 84.9957 53.6062 85.1038 54.3491 85.1038C55.0106 85.1038 55.5581 85.0058 55.9916 84.811C56.4252 84.6157 56.7766 84.3394 57.0452 83.9797C57.3133 83.6212 57.4992 83.1906 57.6029 82.6874C57.7061 82.1854 57.7576 81.6366 57.7576 81.0417V67.7793H65.07V80.3032C65.07 83.8519 64.2074 86.4416 62.4834 88.0727C60.7581 89.7039 58.0467 90.5188 54.3491 90.5188C52.6143 90.5188 51.0806 90.3443 49.7482 89.996C48.4157 89.647 47.2946 89.0679 46.3861 88.2573C45.477 87.4474 44.7856 86.391 44.31 85.088C43.8351 83.7849 43.5977 82.1803 43.5977 80.2722L43.5977 67.7793Z" fill="white"/>
<path d="M82.573 89.934H75.2613V81.8718L66.957 67.7793H75.1371L78.9792 75.2871L82.8206 67.7793H90.8772L82.573 81.7491V89.934Z" fill="white"/>
<path d="M104.385 74.2102C104.323 73.8208 104.199 73.5078 104.013 73.272C103.827 73.0362 103.6 72.8465 103.331 72.7023C102.815 72.4362 102.185 72.3028 101.441 72.3028C100.635 72.3028 100.047 72.4102 99.6751 72.6258C99.3026 72.8408 99.1174 73.1538 99.1174 73.5641C99.1174 73.975 99.3027 74.3133 99.6751 74.5795C100.047 74.8463 100.532 75.0827 101.131 75.2876C101.731 75.4924 102.411 75.6827 103.177 75.8566C103.941 76.0311 104.725 76.2309 105.531 76.4566C106.337 76.6823 107.122 76.9542 107.886 77.2722C108.65 77.5902 109.332 77.9999 109.931 78.5025C110.53 79.0058 111.015 79.6102 111.388 80.3182C111.76 81.0263 111.945 81.883 111.945 82.8876C111.945 84.1799 111.686 85.3034 111.171 86.2574C110.654 87.2108 109.936 88.0005 109.017 88.6264C108.098 89.2523 106.998 89.724 105.717 90.042C104.436 90.3594 103.031 90.5187 101.503 90.5187C100.036 90.5187 98.7042 90.3189 97.5067 89.9187C96.3079 89.5191 95.2804 88.9798 94.4235 88.3033C93.566 87.6262 92.8943 86.8416 92.4092 85.9495C91.9235 85.0568 91.6599 84.1085 91.6191 83.1032H98.6221C98.766 83.8828 99.169 84.4676 99.8298 84.857C100.119 85.0416 100.45 85.1801 100.822 85.2724C101.193 85.3647 101.555 85.4109 101.906 85.4109C102.835 85.4109 103.574 85.2724 104.121 84.9955C104.669 84.7186 104.943 84.314 104.943 83.7797C104.943 83.2259 104.627 82.8004 103.998 82.5032C103.367 82.2061 102.577 81.9387 101.627 81.7028C100.677 81.467 99.6439 81.2103 98.5285 80.934C97.4131 80.6565 96.3799 80.262 95.43 79.7492C94.4795 79.2365 93.6895 78.5492 93.0598 77.6869C92.4296 76.8258 92.1151 75.6871 92.1151 74.2715C92.1151 73.1025 92.357 72.072 92.8427 71.1793C93.3278 70.2872 93.9995 69.5488 94.8571 68.964C95.714 68.3791 96.7313 67.9385 97.9091 67.6407C99.0862 67.3435 100.377 67.1943 101.782 67.1943C103.331 67.1943 104.674 67.3789 105.81 67.7488C106.946 68.1174 107.901 68.6207 108.676 69.256C109.451 69.8921 110.055 70.6362 110.488 71.4872C110.922 72.3382 111.201 73.246 111.325 74.2102H104.385Z" fill="white"/>
<path d="M112.584 69.592C112.415 69.592 112.257 69.5598 112.109 69.496C111.961 69.4321 111.832 69.3456 111.722 69.2364C111.611 69.1267 111.525 68.9985 111.462 68.852C111.399 68.7049 111.367 68.5489 111.367 68.3829C111.367 68.2169 111.399 68.0609 111.462 67.9138C111.525 67.7672 111.611 67.6391 111.722 67.5294C111.832 67.4202 111.961 67.3336 112.109 67.2698C112.257 67.2055 112.415 67.1738 112.584 67.1738C112.751 67.1738 112.908 67.2055 113.057 67.2698C113.204 67.3336 113.333 67.4202 113.444 67.5294C113.554 67.6391 113.641 67.7672 113.705 67.9138C113.77 68.0609 113.802 68.2169 113.802 68.3829C113.802 68.5489 113.77 68.7049 113.705 68.852C113.641 68.9986 113.554 69.1267 113.444 69.2364C113.333 69.3456 113.204 69.4321 113.057 69.496C112.908 69.5598 112.751 69.592 112.584 69.592ZM112.584 69.3049C112.715 69.3049 112.835 69.2818 112.944 69.2364C113.053 69.1905 113.147 69.1272 113.227 69.0463C113.306 68.9654 113.368 68.8685 113.413 68.7545C113.458 68.6406 113.48 68.5167 113.48 68.3829C113.48 68.2491 113.458 68.1252 113.413 68.0112C113.368 67.8973 113.306 67.8003 113.227 67.7195C113.147 67.6386 113.053 67.5753 112.944 67.5294C112.835 67.484 112.715 67.4609 112.584 67.4609C112.452 67.4609 112.33 67.484 112.22 67.5294C112.109 67.5753 112.015 67.6386 111.937 67.7195C111.859 67.8003 111.798 67.8973 111.754 68.0112C111.71 68.1252 111.688 68.2491 111.688 68.3829C111.688 68.5167 111.71 68.6406 111.754 68.7545C111.798 68.8685 111.859 68.9654 111.937 69.0463C112.015 69.1272 112.109 69.1905 112.22 69.2364C112.33 69.2818 112.452 69.3049 112.584 69.3049ZM113.188 69.0401H112.87L112.578 68.4879H112.359V69.0401H112.083V67.7351H112.719C112.893 67.7351 113.021 67.7635 113.105 67.8198C113.188 67.876 113.23 67.981 113.23 68.1342C113.23 68.2552 113.199 68.3423 113.137 68.3957C113.075 68.4491 112.986 68.4798 112.87 68.4879L113.188 69.0401ZM112.722 68.2935C112.797 68.2959 112.858 68.2841 112.904 68.2585C112.95 68.233 112.973 68.18 112.973 68.0992C112.973 68.0543 112.962 68.0207 112.941 67.9985C112.919 67.9762 112.893 67.9601 112.862 67.9507C112.831 67.9412 112.797 67.936 112.761 67.936H112.359V68.2935L112.722 68.2935Z" fill="white"/>
</g>
<defs>
<clipPath id="clip0_106_884">
<rect width="131" height="131" fill="white"/>
</clipPath>
</defs>
</svg>
